<?xml version="1.0" encoding="iso-8859-1"?>
<!-- Generator: Adobe Illustrator 19.0.0, SVG Export Plug-In . SVG Version: 6.00 Build 0)  -->
<svg version="1.1" id="Layer_1" xmlns="http://www.w3.org/2000/svg" xmlns:xlink="http://www.w3.org/1999/xlink" x="0px" y="0px"
	 viewBox="0 0 512 512" fill="#c1f0d0" style="enable-background:new 0 0 512 512;" xml:space="preserve">
<g>
	<g>
		<g>
			<path d="M58.276,310.637h224.895c4.439,0,8.036-3.598,8.036-8.036V173.247c0-4.438-3.597-8.036-8.036-8.036H58.276
				c-4.438,0-8.036,3.598-8.036,8.036V302.6C50.24,307.038,53.838,310.637,58.276,310.637z M66.312,181.283h208.822v113.28H66.312
				V181.283z"/>
			<path d="M245.079,209.171H96.366c-4.438,0-8.036,3.598-8.036,8.036s3.598,8.036,8.036,8.036h148.713
				c4.438,0,8.036-3.598,8.036-8.036C253.115,212.768,249.517,209.171,245.079,209.171z"/>
			<path d="M355.171,281.298c2.37,8.432,8.394,9.088,10.188,9.088c0,0,0.001,0,0.002,0c2.07,0,7.197-0.779,10.099-7.971l7.19-17.802
				l24.54,24.539c3.006,3.006,7.01,4.66,11.275,4.66c4.267,0,8.272-1.656,11.276-4.662l9.105-9.107
				c3.007-3.006,4.663-7.011,4.663-11.277c0-4.267-1.657-8.272-4.662-11.277l-24.537-24.537l17.8-7.188
				c7.542-3.046,8.078-8.437,7.958-10.613c-0.119-2.176-1.244-7.476-9.076-9.676l-84.028-23.595
				c-5.397-1.515-10.666,0.048-13.612,3.932c-2.349,3.1-2.981,7.167-1.779,11.455L355.171,281.298z M411.583,216.718l-14.552,5.875
				c-2.501,1.009-4.329,3.206-4.867,5.848s0.286,5.379,2.192,7.285l33.036,33.036l-8.928,8.93l-33.038-33.036
				c-1.522-1.523-3.573-2.354-5.682-2.354c-0.533,0-1.069,0.052-1.603,0.162c-2.642,0.538-4.839,2.365-5.848,4.865l-5.877,14.555
				l-17.635-62.803L411.583,216.718z"/>
			<path d="M226.947,249.854H114.499c-4.438,0-8.036,3.598-8.036,8.036c0,4.438,3.598,8.036,8.036,8.036h112.447
				c4.438,0,8.036-3.598,8.036-8.036C234.983,253.452,231.385,249.854,226.947,249.854z"/>
			<circle cx="126.24" cy="110.647" r="8.119"/>
			<path d="M475.712,70.265H36.289C16.28,70.265,0,86.544,0,106.554v298.892c0,20.01,16.28,36.289,36.289,36.289h439.422
				c20.01,0,36.288-16.28,36.288-36.289V106.554C512,86.544,495.721,70.265,475.712,70.265z M495.927,405.447
				c0,11.147-9.068,20.216-20.215,20.216H36.289c-11.147,0-20.216-9.069-20.216-20.216V151.03h479.854V405.447z M495.927,134.957
				H16.073v-28.403c0-11.147,9.069-20.216,20.216-20.216h439.422c11.147,0,20.215,9.069,20.215,20.216V134.957z"/>
			<path d="M58.276,396.415h395.086c4.439,0,8.036-3.598,8.036-8.036V336.69c0-4.438-3.597-8.036-8.036-8.036H58.276
				c-4.438,0-8.036,3.598-8.036,8.036v51.689C50.24,392.817,53.838,396.415,58.276,396.415z M66.312,344.725h379.013v35.616H66.312
				V344.725z"/>
			<circle cx="66.395" cy="110.647" r="8.119"/>
			<circle cx="96.317" cy="110.647" r="8.119"/>
		</g>
	</g>
</g>
<g>
</g>
<g>
</g>
<g>
</g>
<g>
</g>
<g>
</g>
<g>
</g>
<g>
</g>
<g>
</g>
<g>
</g>
<g>
</g>
<g>
</g>
<g>
</g>
<g>
</g>
<g>
</g>
<g>
</g>
</svg>
