<?xml version="1.0" encoding="iso-8859-1"?>
<!-- Generator: Adobe Illustrator 19.0.0, SVG Export Plug-In . SVG Version: 6.00 Build 0)  -->
<svg version="1.1" id="Layer_1" xmlns="http://www.w3.org/2000/svg" xmlns:xlink="http://www.w3.org/1999/xlink" x="0px" y="0px"
	 viewBox="0 0 512 512" fill="#c1f0d0" style="enable-background:new 0 0 512 512;" xml:space="preserve">
<g>
	<g>
		<polygon points="295.478,7.731 216.522,7.731 182.741,122.419 329.259,122.419 		"/>
	</g>
</g>
<g>
	<g>
		<path d="M445.666,19.31c-3.904-7.139-11.393-11.579-19.529-11.579H335.26l33.779,114.688h133.026L445.666,19.31z"/>
	</g>
</g>
<g>
	<g>
		<path d="M432.495,238.493c-29.758,0-55.767-16.282-69.638-40.394c-6.268,10.898-14.209,20.884-23.676,29.55
			c-22.762,20.836-52.305,32.31-83.181,32.31c-30.876,0-60.419-11.474-83.181-32.31c-9.467-8.666-17.406-18.651-23.676-29.55
			c-13.872,24.112-39.88,40.394-69.638,40.394c-40.483,0-74.046-30.119-79.505-69.122v312.636c0,12.294,9.966,22.261,22.261,22.261
			H176.08V362.803c0-13.172,10.679-23.851,23.851-23.851h112.136c13.172,0,23.851,10.679,23.851,23.851v141.466h153.821
			c12.294,0,22.261-9.966,22.261-22.261V169.372C506.541,208.374,472.978,238.493,432.495,238.493z"/>
	</g>
</g>
<g>
	<g>
		<path d="M87.453,7.731c-8.052,0-15.478,4.349-19.418,11.374L10.111,122.419h132.85L176.74,7.731H87.453z"/>
	</g>
</g>
<g>
</g>
<g>
</g>
<g>
</g>
<g>
</g>
<g>
</g>
<g>
</g>
<g>
</g>
<g>
</g>
<g>
</g>
<g>
</g>
<g>
</g>
<g>
</g>
<g>
</g>
<g>
</g>
<g>
</g>
</svg>
