<?xml version="1.0" standalone="no"?>
<!DOCTYPE svg PUBLIC "-//W3C//DTD SVG 20010904//EN"
 "http://www.w3.org/TR/2001/REC-SVG-20010904/DTD/svg10.dtd">
<svg version="1.0" xmlns="http://www.w3.org/2000/svg"
 width="850.000000pt" height="329.000000pt" viewBox="0 0 850.000000 329.000000"
 preserveAspectRatio="xMidYMid meet">

<g transform="translate(0.000000,329.000000) scale(0.100000,-0.100000)"
fill="#000000" stroke="none">
<path d="M1829 1513 c-26 -511 -46 -928 -45 -929 2 -1 641 138 643 140 2 2
-227 1558 -232 1572 -2 7 -43 14 -98 19 l-94 7 -59 59 c-32 32 -61 59 -64 59
-3 0 -26 -417 -51 -927z"/>
<path d="M6935 2326 c-135 -43 -222 -147 -264 -317 l-16 -68 -60 -3 -60 -3
-12 -70 c-7 -38 -15 -80 -18 -92 -5 -22 -3 -23 55 -23 33 0 60 -2 60 -4 0 -2
-29 -158 -65 -347 -36 -189 -65 -347 -65 -351 0 -5 56 -8 124 -8 120 0 124 1
129 23 3 12 33 168 67 346 34 179 63 328 66 333 3 4 43 8 89 8 l83 0 12 53 c6
28 14 71 17 95 l6 42 -87 0 -87 0 7 38 c9 49 36 101 69 132 23 21 36 25 92 25
l66 1 23 79 c29 100 29 111 2 119 -40 10 -191 5 -233 -8z"/>
<path d="M3555 2298 c-13 -56 -235 -1230 -235 -1243 0 -13 20 -15 124 -15
l123 0 48 245 c53 277 81 352 153 418 33 29 50 37 80 37 93 0 96 -53 22 -414
-27 -138 -50 -258 -50 -268 0 -16 11 -18 125 -18 70 0 125 4 125 9 0 5 25 142
56 303 75 395 75 480 -1 546 -45 41 -96 56 -165 49 -74 -6 -137 -35 -194 -87
-28 -26 -46 -37 -46 -28 0 8 20 119 45 247 25 128 45 234 45 236 0 3 -56 5
-125 5 -121 0 -125 -1 -130 -22z"/>
<path d="M6302 2289 c-108 -54 -107 -211 1 -246 82 -27 186 33 188 109 3 87
-13 121 -66 144 -47 19 -73 18 -123 -7z"/>
<path d="M2970 1934 c-146 -39 -240 -151 -240 -286 0 -81 55 -158 160 -225 88
-56 110 -81 110 -125 0 -46 -25 -74 -75 -84 -39 -7 -140 9 -194 32 -19 8 -38
11 -43 6 -4 -4 -19 -41 -33 -82 -29 -84 -28 -86 45 -115 60 -23 220 -32 291
-15 64 15 134 49 177 85 40 33 81 117 88 181 13 107 -32 176 -171 268 -92 60
-115 92 -96 133 26 56 132 75 228 40 l41 -15 27 85 c14 47 23 89 18 94 -17 17
-131 39 -203 38 -41 0 -100 -7 -130 -15z"/>
<path d="M4653 1935 c-169 -47 -292 -169 -357 -355 -25 -73 -30 -100 -30 -195
-1 -101 1 -115 28 -172 53 -115 149 -180 279 -190 189 -14 369 95 459 277 53
106 71 193 66 315 -3 83 -9 109 -31 157 -32 65 -90 122 -155 150 -60 27 -188
33 -259 13z m149 -202 c42 -37 51 -72 45 -163 -10 -145 -77 -299 -147 -335
-79 -41 -161 6 -176 100 -20 138 57 348 150 406 37 24 97 20 128 -8z"/>
<path d="M5660 1933 c-52 -18 -90 -42 -144 -92 l-39 -36 7 68 7 68 -113 -3
-113 -3 -22 -150 c-17 -120 -178 -983 -200 -1073 l-5 -23 128 3 127 3 34 180
c19 99 35 181 37 182 2 2 22 -4 46 -12 23 -8 71 -15 105 -15 271 0 488 264
490 595 0 129 -20 191 -84 255 -68 68 -163 87 -261 53z m24 -203 c39 -14 56
-59 56 -142 0 -170 -87 -338 -191 -369 -41 -13 -95 -6 -124 15 -17 12 -17 17
4 136 28 156 53 233 95 291 33 44 84 78 118 79 9 0 28 -4 42 -10z"/>
<path d="M6185 1918 c-6 -18 -165 -854 -165 -867 0 -7 41 -11 124 -11 l125 0
10 53 c6 28 42 221 81 427 39 206 73 383 76 393 5 16 -5 17 -121 17 -92 0
-127 -3 -130 -12z"/>
<path d="M7126 1894 c4 -20 39 -208 79 -418 l72 -381 -19 -39 c-30 -59 -99
-120 -185 -162 -43 -22 -80 -40 -82 -42 -3 -1 10 -50 29 -107 39 -120 28 -116
148 -59 121 59 232 177 352 377 43 72 327 656 401 825 l19 43 -126 -3 -127 -3
-29 -75 c-16 -41 -65 -172 -110 -290 -44 -118 -84 -222 -88 -230 -10 -17 -13
6 -40 280 -12 113 -24 231 -27 263 l-6 57 -134 0 -134 0 7 -36z"/>
</g>
</svg>
